<svg xmlns="http://www.w3.org/2000/svg" version="1.1" xmlns:xlink="http://www.w3.org/1999/xlink" xmlns:svgjs="http://svgjs.com/svgjs" width="512" height="512" x="0" y="0" viewBox="0 0 340 340" style="enable-background:new 0 0 512 512" xml:space="preserve" class=""><g><path fill="#ffb655" d="M40.715 18.33s-6.992 2.284-7.449 13.4v7.615a13.378 13.378 0 0 0-14.294 1.145c-6.768 5.149-5.354 16.068-5.354 16.068S17.569 49.7 25.543 50.2a7.935 7.935 0 0 1 7.418 7.927v3.742h11.313z" data-original="#ffb655"></path><path fill="#f27b31" d="M32.961 61.868v8.855H48.47v-12.6a7.935 7.935 0 0 1 7.417-7.923c7.975-.5 11.926 6.359 11.926 6.359s1.414-10.919-5.354-16.068a13.377 13.377 0 0 0-14.294-1.142v-7.616c-.457-11.119-7.45-13.4-7.45-13.4v32.738A11.292 11.292 0 0 1 34.1 61.347z" data-original="#f27b31"></path><path fill="#3e3a6b" d="M246.419 133.829c-11.809-3.929-23.226-7.1-35.216-7.022l2.421 15.549 23.822 11.335z" data-original="#3e3a6b"></path><ellipse cx="190.447" cy="44.711" fill="#342a35" rx="35.803" ry="23.86" data-original="#342a35"></ellipse><path fill="#342a35" d="m49.42 330-8.7-74.708 220.226-53.807 60.954 50.573L308.033 330h-55.1c-40.39-4.96-77.964-6.4-109.263 0z" data-original="#342a35"></path><path fill="#ef837c" d="m283.869 301.36-9.959 12.91c-4.81 6.238-13.11 15.349-20.98 15.73H237.1l-5.7-36.75s17.943 2.952 32.114-10.727c-.003 0 15.257 4.114 20.355 18.837z" data-original="#ef837c"></path><path fill="#b1a7c6" d="m307.8 204.322-20.008-17.36-12.47-10.82-26.412 38.827 34.817 30.644-20.216 36.91 20.358 18.836 29.767-38.588c13.849-17.953-5.836-58.449-5.836-58.449z" data-original="#b1a7c6"></path><path fill="#655baa" d="m281.451 166.432-4.8 14.067 3.758 32.051c26.987 30.909 27.626 64.414 27.626 117.45h10.851c7.055 0 11.339-2.717 12.486-12.883-.002 0 14.844-96.617-49.921-150.685z" data-original="#655baa"></path><path fill="#b1a7c6" d="M42.464 296.134h50.224a44.342 44.342 0 0 0 20.26-4.721c9.627-4.94 20.367-14.9 20.563-34.785H42.464z" data-original="#b1a7c6"></path><path fill="#342a35" d="M179.7 304.215h-36.033a10.156 10.156 0 0 0-10.156 10.156v5.473A10.156 10.156 0 0 0 143.667 330H179.7zM237.1 304.215h-36.032V330H237.1a10.156 10.156 0 0 0 10.156-10.156v-5.473a10.156 10.156 0 0 0-10.156-10.156z" data-original="#342a35"></path><path fill="#3e3a6b" d="m278.06 183.366-3.011 1.822-5.563 16.3a132.811 132.811 0 0 1 10.906 11.078 70.579 70.579 0 0 0 3.155-26.365 3.621 3.621 0 0 0-5.487-2.835z" data-original="#3e3a6b"></path><path fill="#b1a7c6" d="M129.3 280.393c-.109 5.859 1.063 20.3 14.849 23.822h19.732l-8.581-44.169zM251.322 277.9s2.709 21.86-14.7 26.31h-19.734l14.512-74.667 20.075-15.243z" data-original="#b1a7c6"></path><path fill="#f5eef7" d="M149.374 270.588v5s.193 21.666 14.509 28.631h53.005c14.312-6.969 14.512-28.635 14.512-28.635v-18.39l-55.591-13.764s-21.2 9.649-26.435 27.158z" data-original="#f5eef7"></path><path fill="#b1a7c6" d="m129.3 229.543.153 48.362s-.116.953-.145 2.488c11.114-3.08 23.512-9.9 31.777-21.395 29.851 13.6 53.979 7.381 70.316-1.8v-27.655z" data-original="#b1a7c6"></path><path fill="#3e3a6b" d="m212.81 133.823 26.356 16.266s-17.536 58.478-70.643 37.27v-36.031z" data-original="#3e3a6b"></path><path fill="#655baa" d="M239.569 136.748c-4.716 9.475-11.118 33.136-34.51 40.912-6.756 2.245-15.967 3.657-22.822 1.889-8.451 6.9-9.689 36.647-11.719 63.888a57.5 57.5 0 0 0 54.314-1.527c17.884-10.183 40.6-28.869 58.659-62.7a10.714 10.714 0 0 0-2.04-12.78l-7.419-7.1.327-.887a11.1 11.1 0 0 0-3.807-12.779 88.583 88.583 0 0 0-24.133-11.833 5.735 5.735 0 0 0-6.85 2.917z" data-original="#655baa"></path><path fill="#3e3a6b" d="M197.024 214.3c23.371-4.689 34.441-20.634 39.583-32.853a2.712 2.712 0 0 0-4.532-2.844 89.692 89.692 0 0 1-19.322 16.517 34 34 0 0 1-28.36 3.824 62.229 62.229 0 0 1-12.778-5.483l-12.434 13.915c6.856 6.245 18.41 10.824 37.843 6.924z" data-original="#3e3a6b"></path><path fill="#3e3a6b" d="M182.238 179.547q-1.4-.36-2.763-.845a47.023 47.023 0 0 1-12.768-6.775l-12.718 59.9a70.879 70.879 0 0 0 12.029 9.08 57.545 57.545 0 0 0 4.5 2.523c11.61-24.897 11.974-54.09 11.72-63.883z" data-original="#3e3a6b"></path><path fill="#655baa" d="M173.8 168.2c-2.633 82.532-36.408 100.691-62.581 102.2-13.456.778-26.45-3.612-38.046-10.484-17-10.074-31.913-8.845-31.913-8.845s-5.987-12.172 8.637-19.931c12.403-6.582 26.903 3.322 26.903 3.322 23.585-3.654 21.26-25.246 21.26-25.246v-34.548a35.466 35.466 0 0 1 5.192-18.024l54.486-17.515z" data-original="#655baa"></path><path fill="#3e3a6b" d="m173.8 132.48-57.136 9.3a52.13 52.13 0 0 0-13.408 14.864c1.15 6.3 10.233 16.475 27.733 16.38 12.326-.068 19.527-2.883 28.193-10.119a25.479 25.479 0 0 0 14.61 5.291c.214-6.713.227-13.843.008-21.433z" data-original="#3e3a6b"></path><path fill="#ffb655" d="M134.682 120.882a53.061 53.061 0 0 0-20.737 13.452 14.207 14.207 0 0 0-2.255 3.235q4.012 19.137 26.169 7.95c11.699-12.332 11.676-20.879-3.177-24.637z" data-original="#ffb655"></path><path fill="#342a35" d="M227.859 52.531s-.228 13.179 10.847 27.643c0 0 10.316 14.953 5.462 30.829-5.987 19.578-28.839 19.578-28.839 19.578v-78.05z" data-original="#342a35"></path><path fill="#f27b31" d="M149.893 117.379a58.589 58.589 0 0 0-15.211 3.5c2.421 2.112 13.262 12.545 1.121 20.578-9.953 6.585-19.611 4.948-24.1-3.883a13.548 13.548 0 0 0 3.75 17.045c3.641 2.725 9.027 4.8 16.981 4.7 22.586-.269 39.369-23.662 36.087-41.946z" data-original="#f27b31"></path><path fill="#342a35" d="M153.034 52.531s.229 13.179-10.847 27.643c0 0-10.917 15.15-5.461 30.829 6.813 19.578 31.411 17.98 31.411 17.98l-2.572-76.452z" data-original="#342a35"></path><path fill="#ffcac0" d="M209.128 113.981h-37.362a12.264 12.264 0 0 1-12.266-12.264V72.932l61.889.515v28.27a12.263 12.263 0 0 1-12.261 12.264z" data-original="#ffcac0"></path><path fill="#ef837c" d="M159.5 72.932a120.176 120.176 0 0 0 30.733 4.281 133.624 133.624 0 0 0 31.156-3.766v-15.5H159.5z" data-original="#ef837c"></path><path fill="#ffb655" d="M190.447 70.085c-17.765 0-29.188-4-35.695-7.409A12.923 12.923 0 0 1 147.8 51.23V31.208c0-5.735 3.217-8.288 6.652-10.485a22.825 22.825 0 0 1 4.393 13.177 10.778 10.778 0 1 0 20.332-4.978 8.535 8.535 0 0 1 .9-9.373A48.028 48.028 0 0 1 190.447 10c2.586 21.87 3.187 42.327 0 60.085z" data-original="#ffb655"></path><path fill="#342a35" d="M164.087 115.826v19.963a29.569 29.569 0 0 0 10.939 21.14 24.361 24.361 0 0 0 30.841 0 29.564 29.564 0 0 0 10.939-21.14v-19.963z" data-original="#342a35"></path><path fill="#342a35" d="M223.991 117.25c-3.77-11.834-14.434-16.095-20.028-17.874a10.028 10.028 0 0 0-8.855 1.344 24.877 24.877 0 0 0-4.661 4.285 24.892 24.892 0 0 0-4.6-4.24 10.214 10.214 0 0 0-9.056-1.345c-5.412 1.738-14.9 5.772-19.756 16.278a9.828 9.828 0 0 0-.831 2.927 4.5 4.5 0 0 0 6.955 4.292 11.335 11.335 0 0 1 8.966-1.82c7.489 1.912 13.857 2.549 18.321-2.709 4.463 5.258 10.832 4.621 18.32 2.709a11.208 11.208 0 0 1 8.71 1.659 4.489 4.489 0 0 0 6.648-5.06 11.767 11.767 0 0 0-.133-.446z" data-original="#342a35"></path><path fill="#ffb655" d="M32.01 143.902h17.41v129.92H32.01z" data-original="#ffb655"></path><path fill="#f27b31" d="M32.01 285.828h17.41V330H32.01z" data-original="#f27b31"></path><path fill="#ef837c" d="M56.8 245.613h5.6a8.339 8.339 0 0 1 8.339 8.339v12.188a8.339 8.339 0 0 1-8.339 8.339H52.174z" data-original="#ef837c"></path><path fill="#ffcac0" d="M49.364 296.134H30.3a11 11 0 0 1-11-11v-28.518a11 11 0 0 1 11-11h26.5v12.746a6.883 6.883 0 0 0 0 7v11.29a7.681 7.681 0 0 0 0 7v5.048a7.439 7.439 0 0 1-7.436 7.434z" data-original="#ffcac0"></path><rect width="36.057" height="25.785" x="172.357" y="304.215" fill="#ffb655" rx="7.346" data-original="#ffb655"></rect><path fill="#ffb655" d="M43 115.192H18.423v11.928s-1.027 10.574 7.418 10.574v8.655a3.421 3.421 0 0 0 3.425 3.42h11.449z" data-original="#ffb655"></path><path fill="#655baa" d="M10.917 96.962A29.806 29.806 0 0 1 55.8 71.26c7.247 24.348-25.244 48.09-44.883 25.702z" data-original="#655baa"></path><path fill="#f27b31" d="M40.042 137v8.971l15.548-1.485v-6.791c8.445 0 7.417-10.574 7.417-10.574v-11.929h-38.36l-1.7 5.69 14.1 10.238a7.267 7.267 0 0 1 2.995 5.88z" data-original="#f27b31"></path><path fill="#3e3a6b" d="M55.8 71.267c-1.091 10.864-8.389 28.774-44.783 28.019A29.794 29.794 0 1 0 55.8 71.267z" data-original="#3e3a6b"></path><path fill="#ffb655" d="M40.715 107.382h-27.49a6.062 6.062 0 0 1-6.062-6.062V92.6a6.062 6.062 0 0 1 6.062-6.062h27.49c1.773 7.244 2 14.228 0 20.844z" data-original="#ffb655"></path><path fill="#ef837c" d="M56.8 258.359H34.056a3.5 3.5 0 1 0 0 7H56.8zM56.8 276.649H34.056a3.5 3.5 0 1 0 0 7H56.8z" data-original="#ef837c"></path><g fill="#3e3a6b"><path d="m279.768 164.82-5.736-5.492c-14.449 25.17-33.532 48.659-53.2 61.847a38.643 38.643 0 0 1-24.746 6.658l-.348-.031a2.306 2.306 0 0 0-1.313 4.335c3.481 1.838 8.811 3.081 16.782 1.748 17.629-2.949 55.804-40.806 68.561-69.065zM160.808 160.5a118.483 118.483 0 0 1-11.492 57.7c-1.5 3.078-6.487 1.591-5.692-1.738 3.579-14.981 10.365-36.637 4.178-52.362l10.8-10.1zM122.806 201.545a4.417 4.417 0 1 0-8.833.087c.186 8.751-.628 27.515-10.718 31.18-5.706 2.072-10-.179-13.159-3.857a26.931 26.931 0 0 1-13.3 5.507s17.47 12.728 29.339 8.585c17.464-6.1 16.667-26.014 16.667-26.014zM122.812 170l-.994 12.834a3.684 3.684 0 0 1-3.673 3.4 3.676 3.676 0 0 1-3.654-3.2 102.47 102.47 0 0 1-.464-22.475z" fill="#3e3a6b" data-original="#3e3a6b"></path></g><path fill="#ef837c" d="M181.844 90.359a3.467 3.467 0 0 1-.912-.122 23.417 23.417 0 0 0-3.15-.588 3.5 3.5 0 0 1 .729-6.962 30.263 30.263 0 0 1 4.242.791 3.5 3.5 0 0 1-.909 6.881zM199.049 90.359a3.5 3.5 0 0 1-.908-6.881 30.235 30.235 0 0 1 4.241-.791 3.5 3.5 0 0 1 .728 6.962 23.5 23.5 0 0 0-3.149.588 3.51 3.51 0 0 1-.912.122z" data-original="#ef837c"></path><path fill="#f27b31" d="M233.092 31.208c0-5.735-3.218-8.288-6.653-10.485a22.825 22.825 0 0 0-4.391 13.177 10.778 10.778 0 1 1-20.333-4.975 8.541 8.541 0 0 0-.9-9.378A48.066 48.066 0 0 0 190.447 10v35.834a2.486 2.486 0 0 1-1.972 2.409 8.854 8.854 0 0 0 0 17.263 2.487 2.487 0 0 1 1.972 2.409v2.17c17.765 0 29.187-4 35.694-7.409a12.924 12.924 0 0 0 6.951-11.446z" data-original="#f27b31"></path><circle cx="166.131" cy="55.159" r="3.559" fill="#ffffff" data-original="#ffffff"></circle><circle cx="214.762" cy="55.159" r="3.559" fill="#dad0e2" data-original="#dad0e2"></circle><path fill="#f27b31" d="M25.841 146.349a3.421 3.421 0 0 0 3.425 3.42h22.9a3.425 3.425 0 0 0 3.425-3.425v-8.65h-29.75z" data-original="#f27b31"></path><path fill="#f27b31" d="M49.42 167.763v-23.861H32.01v16.883zM68.206 86.542H40.715v20.84h27.491a6.062 6.062 0 0 0 6.062-6.062V92.6a6.062 6.062 0 0 0-6.062-6.058z" data-original="#f27b31"></path><circle cx="40.715" cy="96.962" r="3.559" fill="#ffffff" data-original="#ffffff"></circle><circle cx="23.281" cy="96.962" r="3.559" fill="#ffffff" data-original="#ffffff"></circle><circle cx="58.138" cy="96.962" r="3.559" fill="#dad0e2" data-original="#dad0e2"></circle><path fill="#f27b31" d="M197.847 308.475h-.742a3.561 3.561 0 0 0-3.227 2.056l-5.729 12.3A2.045 2.045 0 0 0 190 325.74h7.844a4.919 4.919 0 0 0 4.919-4.919v-7.428a4.919 4.919 0 0 0-4.916-4.918z" data-original="#f27b31"></path><circle cx="190.447" cy="56.875" r="3.559" fill="#ffffff" data-original="#ffffff"></circle></g></svg>